<svg width="93" height="33" viewBox="0 0 93 33" fill="none" xmlns="http://www.w3.org/2000/svg">
<mask id="mask0_1_357" style="mask-type:alpha" maskUnits="userSpaceOnUse" x="0" y="0" width="33" height="33">
<path d="M0 6C0 3.17157 0 1.75736 0.87868 0.87868C1.75736 0 3.17157 0 6 0H31.2321C32.2085 0 33 0.791497 33 1.76786C33 19.0169 19.0169 33 1.76786 33C0.791496 33 0 32.2085 0 31.2321V6Z" fill="#99EA48"/>
</mask>
<g mask="url(#mask0_1_357)">
<path d="M0 6C0 3.17157 0 1.75736 0.87868 0.87868C1.75736 0 3.17157 0 6 0H31.2321C32.2085 0 33 0.791497 33 1.76786C33 19.0169 19.0169 33 1.76786 33C0.791496 33 0 32.2085 0 31.2321V6Z" fill="#99EA48"/>
<path d="M11 17.5C11 14.6716 11 13.2574 11.8787 12.3787C12.7574 11.5 14.1716 11.5 17 11.5H24.25C24.6642 11.5 25 11.8358 25 12.25C25 19.5678 19.0678 25.5 11.75 25.5C11.3358 25.5 11 25.1642 11 24.75V17.5Z" fill="#191F33"/>
</g>
<path d="M42.68 26V8.72H45.284L51.26 20.96L57.236 8.72H59.84V26H57.14V14.924L51.836 26H50.684L45.392 14.924V26H42.68ZM60.8112 26L66.2592 8.72H70.4952L75.9433 26H72.9673L68.0232 10.496H68.6712L63.7872 26H60.8112ZM63.8472 22.256V19.556H72.9192V22.256H63.8472ZM83.7521 26.36C82.0241 26.36 80.5441 25.984 79.3121 25.232C78.0801 24.472 77.1321 23.416 76.4681 22.064C75.8121 20.712 75.4841 19.144 75.4841 17.36C75.4841 15.576 75.8121 14.008 76.4681 12.656C77.1321 11.304 78.0801 10.252 79.3121 9.5C80.5441 8.74 82.0241 8.36 83.7521 8.36C85.7441 8.36 87.4041 8.86 88.7321 9.86C90.0601 10.852 90.9921 12.192 91.5281 13.88L88.6121 14.684C88.2761 13.556 87.7041 12.676 86.8961 12.044C86.0881 11.404 85.0401 11.084 83.7521 11.084C82.5921 11.084 81.6241 11.344 80.8481 11.864C80.0801 12.384 79.5001 13.116 79.1081 14.06C78.7241 14.996 78.5281 16.096 78.5201 17.36C78.5201 18.624 78.7121 19.728 79.0961 20.672C79.4881 21.608 80.0721 22.336 80.8481 22.856C81.6241 23.376 82.5921 23.636 83.7521 23.636C85.0401 23.636 86.0881 23.316 86.8961 22.676C87.7041 22.036 88.2761 21.156 88.6121 20.036L91.5281 20.84C90.9921 22.528 90.0601 23.872 88.7321 24.872C87.4041 25.864 85.7441 26.36 83.7521 26.36Z" fill="#020407"/>
</svg>
