<svg width="99" height="19" viewBox="0 0 99 19" fill="none" xmlns="http://www.w3.org/2000/svg">
<path fill-rule="evenodd" clip-rule="evenodd" d="M1.69321 15.865C-0.564433 13.6265 -0.564397 9.99724 1.69328 7.75874L7.82522 1.67888C9.73377 -0.213428 12.6447 -0.506087 14.8633 0.800911C15.5496 1.20518 15.5436 2.13255 14.9791 2.69218C14.4147 3.25181 13.4933 3.20365 12.7272 2.98147C11.7462 2.69698 10.6429 2.93832 9.86922 3.70547L3.73724 9.78529C2.60841 10.9046 2.60839 12.7192 3.73721 13.8385C4.86606 14.9578 6.69631 14.9578 7.82515 13.8385L20.0889 1.67896C22.3467 -0.559534 26.007 -0.559544 28.2648 1.67894L34.3968 7.75874C36.6545 9.99716 36.6545 13.6265 34.3968 15.865C32.1391 18.1035 28.4787 18.1035 26.2209 15.865L24.177 13.8385L21.622 16.3717C19.7135 18.264 16.8025 18.5567 14.5839 17.2497C13.8977 16.8454 13.9037 15.918 14.4681 15.3584C15.0325 14.7988 15.9538 14.8469 16.72 15.0691C17.7011 15.3536 18.8043 15.1122 19.578 14.3451L22.206 11.7395C23.2946 10.6602 25.0594 10.6602 26.148 11.7395L28.2649 13.8385C29.3938 14.9577 31.224 14.9577 32.3528 13.8385C33.4816 12.7192 33.4816 10.9046 32.3528 9.78529L26.2208 3.70554C25.0919 2.5863 23.2618 2.58631 22.1329 3.70556L9.86915 15.8651C7.6114 18.1036 3.9509 18.1036 1.69321 15.865Z" fill="#1D2D35" fill-opacity="0.5"/>
<path d="M59.1815 3.2488C57.7609 3.2488 56.6847 3.7575 55.9744 4.7749C55.3502 3.7575 54.3601 3.2488 53.0471 3.2488C51.6911 3.2488 50.7009 3.71511 50.0551 4.66892V3.54555H47.2785V14.1434H50.0551V8.18738C50.0551 6.64012 50.8516 5.79229 52.0785 5.79229C53.2193 5.79229 53.8865 6.53414 53.8865 7.80591V14.1434H56.6632V8.18738C56.6632 6.64012 57.395 5.79229 58.665 5.79229C59.8058 5.79229 60.473 6.53414 60.473 7.80591V14.1434H63.2497V7.6151C63.2497 4.96566 61.6568 3.2488 59.1815 3.2488Z" fill="#1D2D35" fill-opacity="0.5"/>
<path d="M73.5719 4.79609C72.7324 3.7575 71.5701 3.2488 70.0634 3.2488C68.6213 3.2488 67.3944 3.79989 66.3613 4.88087C65.3496 5.96186 64.833 7.276 64.833 8.84449C64.833 10.4129 65.3496 11.7483 66.3613 12.8293C67.3944 13.9102 68.6213 14.4402 70.0634 14.4402C71.5701 14.4402 72.7324 13.9314 73.5719 12.8929V14.1434H76.3487V3.54555H73.5719V4.79609ZM68.4491 11.0064C67.8895 10.4341 67.6096 9.71348 67.6096 8.84449C67.6096 7.97543 67.8895 7.2548 68.4491 6.70371C69.0088 6.13143 69.719 5.85588 70.58 5.85588C71.441 5.85588 72.1513 6.13143 72.7109 6.70371C73.2921 7.2548 73.5719 7.97543 73.5719 8.84449C73.5719 9.71348 73.2921 10.4341 72.7109 11.0064C72.1513 11.5576 71.441 11.8331 70.58 11.8331C69.719 11.8331 69.0088 11.5576 68.4491 11.0064Z" fill="#1D2D35" fill-opacity="0.5"/>
<path d="M86.5938 5.36833V3.5455H78.5222V6.11019H82.8483L78.3063 12.3205V14.1434H86.8089V11.5787H82.03L86.5938 5.36833Z" fill="#1D2D35" fill-opacity="0.5"/>
<path d="M98.4185 9.96784C98.4832 9.56516 98.5261 9.20483 98.5261 8.84449C98.5261 7.2548 98.0101 5.94066 96.9767 4.85968C95.9651 3.77869 94.652 3.2488 93.0808 3.2488C91.4232 3.2488 90.0461 3.77869 88.9909 4.85968C87.9364 5.91947 87.3979 7.2548 87.3979 8.84449C87.3979 10.4554 87.9364 11.7907 89.0127 12.8504C90.0889 13.9102 91.5097 14.4402 93.2959 14.4402C95.362 14.4402 96.9339 13.6771 97.9883 12.1722L95.75 10.9005C95.2115 11.5999 94.394 11.9602 93.3388 11.9602C91.6819 11.9602 90.6703 11.3032 90.304 9.96784H98.4185ZM90.2612 7.84825C90.5838 6.49175 91.5954 5.70751 93.0808 5.70751C94.3504 5.70751 95.4266 6.40697 95.75 7.84825H90.2612Z" fill="#1D2D35" fill-opacity="0.5"/>
</svg>
