<svg width="108" height="21" viewBox="0 0 108 21" fill="none" xmlns="http://www.w3.org/2000/svg">
<path d="M8.87308 9.85222C8.87308 8.04269 7.51207 6.77092 5.84026 6.77092C4.16844 6.77092 2.80742 8.06412 2.80742 9.85222C2.80742 11.6189 4.16844 12.9336 5.84026 12.9336C7.51376 12.9319 8.87308 11.6618 8.87308 9.85222ZM8.89698 15.238V13.8375C8.07217 14.8075 6.84436 15.4095 5.37406 15.4095C2.31902 15.4095 0 13.0391 0 9.85222C0 6.68512 2.40782 4.27349 5.44236 4.27349C6.87001 4.27349 8.07392 4.87722 8.89867 5.82406V4.46648H11.6412V15.238H8.89698Z" fill="#1D2D35" fill-opacity="0.5"/>
<path d="M24.9627 12.8462C24.003 12.8462 23.7366 12.5014 23.7366 11.5975V6.8154H25.4989V4.46647H23.7366V1.83875H20.9257V4.46647H17.3055V3.81161C17.3055 2.90601 17.6624 2.56125 18.6443 2.56125H19.2608V0.471282H17.9083C15.5892 0.471282 14.4963 1.20368 14.4963 3.44376V4.46482H12.9355V6.81377H14.4963V15.2363H17.3072V6.81377H20.9274V12.0923C20.9274 14.2895 21.7967 15.238 24.0713 15.238H25.5211V12.8462H24.9627Z" fill="#1D2D35" fill-opacity="0.5"/>
<path d="M35.0432 8.88228C34.8434 7.48178 33.66 6.64215 32.2785 6.64215C30.8952 6.64215 29.758 7.46035 29.4694 8.88228H35.0432ZM29.4455 10.5632C29.647 12.1566 30.8287 13.0622 32.3229 13.0622C33.5046 13.0622 34.4199 12.5228 34.9544 11.6617H37.8318C37.1624 13.9447 35.0432 15.4095 32.2563 15.4095C28.8887 15.4095 26.5253 13.1265 26.5253 9.87362C26.5253 6.62072 29.0237 4.27179 32.3246 4.27179C35.6478 4.27179 38.0556 6.64222 38.0556 9.87362C38.0556 10.1112 38.0334 10.3471 37.9889 10.5632H29.4455Z" fill="#1D2D35" fill-opacity="0.5"/>
<path d="M55.9264 9.85222C55.9264 8.10699 54.5654 6.77092 52.8935 6.77092C51.2217 6.77092 49.8607 8.06412 49.8607 9.85222C49.8607 11.6189 51.2217 12.9336 52.8935 12.9336C54.5654 12.9319 55.9264 11.5975 55.9264 9.85222ZM47.0943 4.46648H49.8368V5.86694C50.6616 4.87556 51.8877 4.27349 53.3597 4.27349C56.3703 4.27349 58.7338 6.66531 58.7338 9.83079C58.7338 12.9979 56.3259 15.4112 53.2931 15.4112C51.8877 15.4112 50.7282 14.8718 49.9256 13.9679V19.6703H47.0943V4.46648Z" fill="#1D2D35" fill-opacity="0.5"/>
<path d="M68.6195 9.85222C68.6195 8.04269 67.2602 6.77092 65.5865 6.77092C63.9148 6.77092 62.5538 8.06412 62.5538 9.85222C62.5538 11.6189 63.9148 12.9336 65.5865 12.9336C67.2602 12.9319 68.6195 11.6618 68.6195 9.85222ZM68.6435 15.238V13.8375C67.8187 14.8075 66.5906 15.4095 65.1202 15.4095C62.0654 15.4095 59.7464 13.0391 59.7464 9.85222C59.7464 6.68512 62.1542 4.27349 65.1871 4.27349C66.6146 4.27349 67.8187 4.87722 68.6435 5.82406V4.46648H71.3862V15.238H68.6435Z" fill="#1D2D35" fill-opacity="0.5"/>
<path d="M42.1505 5.52219C42.1505 5.52219 42.849 4.27349 44.5583 4.27349C45.2892 4.27349 45.7623 4.51596 45.7623 4.51596V7.26412C45.7623 7.26412 44.7308 6.64882 43.783 6.77254C42.8353 6.89626 42.2359 7.73751 42.2393 8.86251V15.2396H39.408V4.46813H42.1505V5.52219Z" fill="#1D2D35" fill-opacity="0.5"/>
<path d="M84.1949 4.46646L77.2704 19.6356H74.3504L77.069 13.7715L72.4721 4.46646H75.7818L78.4712 10.6836L81.2308 4.46646H84.1949Z" fill="#1D2D35" fill-opacity="0.5"/>
<path d="M106.3 4.22234L99.4348 0.395397C97.4195 -0.727938 94.9008 0.675823 94.9008 2.92414V3.31674C94.9008 3.67139 95.097 3.99965 95.4146 4.17615L96.7109 4.89865C97.0915 5.11144 97.5662 4.84586 97.5662 4.42193V3.4454C97.5662 2.95714 98.1131 2.65197 98.5502 2.89611L104.496 6.21168C104.934 6.45582 104.934 7.06615 104.496 7.30866L98.5502 10.6242C98.1131 10.8684 97.5662 10.5632 97.5662 10.0749V9.55528C97.5662 7.30697 95.0476 5.90157 93.031 7.02653L86.1662 10.8535C84.151 11.9769 84.151 14.7877 86.1662 15.911L93.031 19.7379C95.0457 20.8612 97.5662 19.4575 97.5662 17.2092V16.8166C97.5662 16.4619 97.3701 16.1353 97.0525 15.9572L95.7562 15.233C95.3756 15.0202 94.9008 15.2858 94.9008 15.7098V16.6863C94.9008 17.1746 94.3547 17.4797 93.9169 17.2356L87.9711 13.92C87.534 13.6759 87.534 13.0656 87.9711 12.8214L93.9169 9.50579C94.3547 9.26166 94.9008 9.56684 94.9008 10.0551V10.5747C94.9008 12.823 97.4195 14.2285 99.4348 13.1035L106.3 9.27653C108.315 8.15647 108.315 5.34567 106.3 4.22234Z" fill="#1D2D35" fill-opacity="0.5"/>
</svg>
