<svg width="115" height="26" viewBox="0 0 115 26" fill="none" xmlns="http://www.w3.org/2000/svg">
<path d="M33.5775 6.94146H38.3804C41.0408 6.94146 42.422 8.03231 42.422 10.0806V10.1826C42.4599 10.7829 42.2812 11.3768 41.9182 11.8564C41.5553 12.336 41.0323 12.6694 40.4444 12.796C41.1485 12.858 41.7997 13.1952 42.2567 13.7344C42.7136 14.2737 42.9394 14.9714 42.8851 15.6762V15.7468C42.8851 17.9834 41.4175 19.1606 38.6001 19.1606H33.5775V6.94146ZM37.933 11.9563C39.2672 11.9563 39.793 11.4775 39.793 10.3867V10.316C39.793 9.29582 39.2122 8.8328 37.9173 8.8328H36.2771V11.972L37.933 11.9563ZM38.1685 17.2379C39.534 17.2379 40.154 16.6179 40.154 15.5114V15.4407C40.154 14.3106 39.534 13.7377 38.0351 13.7377H36.2771V17.2457L38.1685 17.2379Z" fill="#8C9498"/>
<path d="M43.6072 16.6729C43.6072 14.5853 45.5142 13.8005 48.2531 13.8005H49.2577V13.4474C49.2577 12.3879 48.9359 11.8072 47.8058 11.8072C47.6229 11.7854 47.4374 11.8014 47.2609 11.854C47.0844 11.9067 46.9205 11.9949 46.7793 12.1133C46.6382 12.2316 46.5227 12.3776 46.4401 12.5423C46.3575 12.7069 46.3095 12.8868 46.299 13.0707H43.9446C44.1016 10.9517 45.7732 10.01 47.9627 10.01C50.1523 10.01 51.6983 10.8968 51.6983 13.3218V19.1449H49.289V18.0698C48.9867 18.4958 48.579 18.8362 48.1059 19.0576C47.6327 19.2791 47.1102 19.374 46.5894 19.3333C44.9727 19.3333 43.6072 18.5485 43.6072 16.6729ZM49.2577 16.0215V15.2367H48.3002C46.864 15.2367 46.0322 15.5506 46.0322 16.5002C46.0322 17.1516 46.4246 17.5832 47.3271 17.5832C48.4179 17.6146 49.2577 17.0103 49.2577 16.0215Z" fill="#8C9498"/>
<path d="M52.742 16.3432H55.0492C55.1513 17.128 55.5437 17.6146 56.6188 17.6146C57.5763 17.6146 58.0236 17.2536 58.0236 16.6336C58.0236 16.0136 57.4899 15.7625 56.2107 15.582C53.8564 15.221 52.9146 14.5382 52.9146 12.796C52.9146 11.0538 54.6255 10.01 56.4462 10.01C58.4317 10.01 59.9149 10.732 60.1347 12.7803H57.8666C57.7332 12.0426 57.3173 11.7051 56.4697 11.7051C55.6221 11.7051 55.2062 12.0818 55.2062 12.6233C55.2062 13.1649 55.63 13.4081 56.9249 13.5965C59.1615 13.9182 60.3936 14.4833 60.3936 16.3982C60.3936 18.3131 58.9967 19.3333 56.6345 19.3333C54.2723 19.3333 52.8283 18.2738 52.742 16.3432Z" fill="#8C9498"/>
<path d="M61.0293 14.7893V14.6559C60.9996 14.0426 61.0975 13.4298 61.317 12.8563C61.5365 12.2828 61.8727 11.7612 62.3043 11.3244C62.7359 10.8877 63.2535 10.5453 63.8243 10.319C64.3951 10.0928 65.0067 9.98752 65.6204 10.01C67.9276 10.01 69.9759 11.3598 69.9759 14.5539V15.2367H63.5642C63.627 16.7199 64.4353 17.591 65.7773 17.591C66.9231 17.591 67.4882 17.0966 67.6451 16.3432H69.9995C69.7091 18.2738 68.1709 19.349 65.7302 19.349C62.9913 19.3333 61.0293 17.646 61.0293 14.7893ZM67.5666 13.7142C67.4882 12.3643 66.7975 11.7522 65.6204 11.7522C65.0904 11.7497 64.5801 11.9527 64.1967 12.3186C63.8132 12.6844 63.5865 13.1847 63.5642 13.7142H67.5666Z" fill="#8C9498"/>
<path d="M70.6273 14.7893V14.6559C70.5974 14.0412 70.6958 13.427 70.9162 12.8524C71.1366 12.2778 71.4742 11.7554 71.9075 11.3184C72.3408 10.8814 72.8604 10.5393 73.4331 10.3141C74.0058 10.0888 74.6191 9.98522 75.234 10.0099C77.3059 10.0099 79.2129 10.9124 79.4405 13.4787H77.0861C77.0705 13.2584 77.0107 13.0435 76.9104 12.8468C76.8101 12.6501 76.6712 12.4755 76.5021 12.3335C76.333 12.1915 76.1371 12.0849 75.926 12.0201C75.7149 11.9553 75.4929 11.9335 75.2733 11.9562C73.9941 11.9562 73.1386 12.9136 73.1386 14.6245V14.7579C73.1386 16.555 73.9234 17.4733 75.3282 17.4733C75.5672 17.487 75.8066 17.453 76.0323 17.3734C76.2581 17.2937 76.4658 17.17 76.6432 17.0093C76.8207 16.8486 76.9645 16.6542 77.0661 16.4375C77.1677 16.2207 77.2252 15.9859 77.2352 15.7467H79.4719C79.3385 17.8656 77.8003 19.3332 75.2026 19.3332C72.605 19.3332 70.6273 17.7087 70.6273 14.7893Z" fill="#8C9498"/>
<path d="M80.0449 16.6728C80.0449 14.5853 81.952 13.8005 84.683 13.8005H85.6954V13.4474C85.6954 12.3879 85.3658 11.8071 84.2435 11.8071C84.0594 11.7831 83.8723 11.7973 83.6939 11.8489C83.5155 11.9005 83.3497 11.9883 83.2068 12.1069C83.0639 12.2255 82.947 12.3723 82.8634 12.5381C82.7798 12.704 82.7314 12.8852 82.721 13.0707H80.3667C80.5236 10.9517 82.1952 10.01 84.3769 10.01C86.5587 10.01 88.1204 10.8968 88.1204 13.3218V19.1449H85.7111V18.0698C85.4087 18.4958 85.0011 18.8361 84.5279 19.0576C84.0547 19.279 83.5322 19.374 83.0114 19.3333C81.4418 19.3333 80.0449 18.5485 80.0449 16.6728ZM85.6954 16.0215V15.2367H84.7536C83.3175 15.2367 82.4778 15.5506 82.4778 16.5002C82.4778 17.1516 82.878 17.5832 83.7805 17.5832C84.8871 17.6146 85.7268 17.0103 85.7268 16.0215H85.6954Z" fill="#8C9498"/>
<path d="M89.8624 10.1826H92.3345V11.5481C92.6041 11.063 93.0008 10.6605 93.482 10.3839C93.9632 10.1073 94.5107 9.9672 95.0656 9.97855C95.5952 9.93619 96.1243 10.0661 96.574 10.349C97.0237 10.6318 97.37 11.0524 97.5612 11.5481C97.8908 11.0559 98.3387 10.6542 98.8639 10.38C99.389 10.1057 99.9746 9.96771 100.567 9.97855C102.223 9.97855 103.502 11.0223 103.502 13.3924V19.1135H101.046V13.6984C101.046 12.5527 100.536 12.0425 99.6409 12.0425C99.4029 12.0322 99.1655 12.0733 98.9448 12.1631C98.7242 12.2529 98.5255 12.3892 98.3623 12.5628C98.1992 12.7364 98.0754 12.9431 97.9994 13.1689C97.9235 13.3947 97.8971 13.6342 97.9222 13.8711V19.1449H95.458V13.6984C95.458 12.5527 94.9322 12.0425 94.0611 12.0425C93.8224 12.031 93.5841 12.0713 93.3625 12.1605C93.1409 12.2498 92.9412 12.386 92.7772 12.5597C92.6132 12.7334 92.4887 12.9406 92.4123 13.1669C92.3358 13.3933 92.3093 13.6335 92.3345 13.8711V19.1449H89.8624V10.1826Z" fill="#8C9498"/>
<path d="M105.197 10.1826H107.677V11.5874C107.973 11.096 108.39 10.6896 108.89 10.4077C109.389 10.1257 109.953 9.97788 110.526 9.97856C112.716 9.97856 114.45 11.6031 114.45 14.5539V14.6951C114.45 17.6459 112.778 19.3019 110.526 19.3019C109.953 19.3254 109.385 19.1915 108.883 18.9148C108.38 18.6381 107.964 18.2291 107.677 17.7323V22.1899H105.197V10.1826ZM111.907 14.5774C111.907 12.7646 111.021 11.8778 109.773 11.8778C108.525 11.8778 107.591 12.7803 107.591 14.5774V14.7108C107.591 16.5002 108.446 17.3713 109.796 17.3713C111.146 17.3713 111.907 16.4609 111.907 14.7422V14.5774Z" fill="#8C9498"/>
<path fill-rule="evenodd" clip-rule="evenodd" d="M15.2292 2.67613C8.26539 2.67613 4.6337 8.57458 2.60031 14.3397C2.3545 15.0367 1.59028 15.4024 0.893362 15.1566C0.394897 14.9807 0.065874 14.5397 0.0088511 14.0478C-0.0138509 13.852 0.00655913 13.6481 0.0765529 13.4496C2.13976 7.59991 6.35595 0 15.2292 0C19.8672 0 23.187 3.06834 25.334 6.75458C27.4866 10.4505 28.6344 15.0269 28.893 18.7219C28.9116 18.9875 28.8505 19.2525 28.7176 19.4832C27.4742 21.6416 25.4057 23.0482 23.0477 23.9097C20.6956 24.7691 17.971 25.1202 15.24 25.1211C12.9196 25.1573 10.6187 24.6929 8.49398 23.7596C6.36589 22.8247 4.4647 21.4415 2.92036 19.7043C2.59182 19.3348 2.49388 18.8142 2.66565 18.3505L2.66666 18.3478L2.66858 18.3426L2.67512 18.3252L2.69881 18.2627C2.71924 18.2092 2.74885 18.1325 2.78701 18.036C2.86327 17.8429 2.97395 17.5697 3.11389 17.2427C3.39253 16.5915 3.79284 15.714 4.27372 14.8279C4.74827 13.9536 5.33182 13.0136 5.98805 12.273C6.58629 11.5979 7.51617 10.7754 8.70637 10.7673L8.71544 10.7673C9.55647 10.7673 10.2473 11.1524 10.7446 11.5225C11.2459 11.8957 11.7011 12.3699 12.0659 12.7559C12.1077 12.8002 12.1484 12.8433 12.188 12.8853C12.5277 13.2455 12.7875 13.521 13.0344 13.7273C13.0621 13.7505 13.0876 13.7709 13.1108 13.7889C13.1911 13.7069 13.2869 13.5994 13.3972 13.4627C13.7893 12.9765 14.2298 12.2916 14.6561 11.5584C15.0768 10.8349 15.4596 10.106 15.7388 9.55469C15.8778 9.27998 15.9901 9.0515 16.0671 8.89257C16.1056 8.81314 16.1353 8.75121 16.1551 8.70969L16.1772 8.66311L16.1824 8.65202L16.1835 8.64964C16.4972 7.98062 17.294 7.69215 17.9631 8.00578C18.6322 8.31943 18.9204 9.11614 18.6068 9.78526L18.6039 9.7914L18.5969 9.80615L18.5712 9.86038C18.5489 9.90714 18.5166 9.9747 18.4752 10.0601C18.3924 10.2308 18.2733 10.4732 18.1263 10.7635C17.8333 11.3423 17.425 12.1202 16.9696 12.9035C16.5199 13.677 15.9995 14.499 15.4801 15.1429C15.2225 15.4622 14.9305 15.7816 14.6148 16.0327C14.3357 16.2547 13.8434 16.5826 13.2123 16.5826C12.3778 16.5826 11.7202 16.1166 11.3183 15.7808C10.9396 15.4643 10.5612 15.062 10.2434 14.7241C10.2014 14.6795 10.1605 14.636 10.1208 14.594C9.74401 14.1952 9.43601 13.8846 9.1466 13.6692C8.89295 13.4804 8.76344 13.4493 8.72625 13.4443C8.72625 13.4443 8.72358 13.4453 8.72124 13.4462C8.68033 13.4606 8.43454 13.5472 7.99099 14.0478C7.53111 14.5668 7.06058 15.3033 6.62576 16.1045C6.19726 16.894 5.8329 17.691 5.57421 18.2955C5.54087 18.3734 5.50939 18.4479 5.47985 18.5185C6.65748 19.6919 8.04392 20.6389 9.57028 21.3094C11.3457 22.0893 13.2685 22.4767 15.2074 22.4451L15.2292 22.445C17.7605 22.445 20.1564 22.117 22.1293 21.3961C23.9444 20.733 25.329 19.7665 26.1896 18.4833C25.898 15.195 24.8505 11.2417 23.0215 8.10147C21.1072 4.81486 18.5097 2.67613 15.2292 2.67613ZM12.8909 13.9791C12.8909 13.9791 12.8967 13.9746 12.908 13.9689C12.8964 13.9767 12.8909 13.9791 12.8909 13.9791Z" fill="#8C9498"/>
</svg>
